<?xml version="1.0" standalone="no"?>
<!DOCTYPE svg PUBLIC "-//W3C//DTD SVG 20010904//EN"
 "http://www.w3.org/TR/2001/REC-SVG-20010904/DTD/svg10.dtd">
<svg version="1.0" xmlns="http://www.w3.org/2000/svg"
 width="50.000000pt" height="50.000000pt" viewBox="0 0 200.000000 200.000000"
 preserveAspectRatio="xMidYMid meet">

<g transform="translate(0.000000,200.000000) scale(0.100000,-0.100000)"
fill="#000000" stroke="none">
<path d="M860 1993 c-394 -62 -699 -321 -826 -703 -28 -82 -29 -91 -29 -290 0
-199 1 -208 29 -290 114 -343 371 -589 712 -680 112 -30 291 -37 412 -16 203
35 380 126 527 271 140 137 227 284 275 460 31 115 38 323 16 435 -45 222
-129 376 -291 535 -191 188 -438 287 -704 284 -53 -1 -107 -3 -121 -6z m257
-74 c108 -14 258 -67 355 -125 95 -57 226 -181 288 -273 57 -85 104 -189 132
-292 32 -117 32 -345 0 -462 -18 -66 -94 -247 -104 -247 -2 0 -1 44 0 99 l4
99 -41 0 c-48 1 -61 -16 -61 -78 0 -51 15 -80 40 -80 13 0 20 -7 20 -20 0 -23
-10 -26 -28 -8 -15 15 -26 4 -18 -18 5 -12 15 -15 40 -12 l34 4 -31 -46 c-51
-75 -178 -193 -266 -248 -477 -293 -1093 -108 -1331 401 -60 127 -83 237 -83
387 0 150 23 260 83 387 175 374 562 587 967 532z m633 -1273 c0 -55 -12 -80
-24 -50 -8 20 -8 68 0 88 13 33 24 14 24 -38z"/>
<path d="M953 1508 l-53 -21 2 -56 1 -56 7 50 7 50 1 -46 c1 -26 14 -73 28
-104 23 -53 24 -60 10 -74 -15 -14 -16 -13 -16 12 0 31 -11 33 -60 8 -31 -15
-38 -15 -57 -3 -16 10 -23 11 -23 3 0 -9 -5 -9 -20 -1 -16 8 -20 8 -20 -4 0
-8 -6 -17 -12 -19 -10 -4 -10 -6 0 -6 9 -1 12 -36 12 -139 l0 -137 110 -52
110 -51 0 154 c0 85 4 154 9 154 15 0 21 -59 20 -178 -1 -62 1 -116 5 -119 3
-3 53 17 111 45 l105 51 0 135 c0 98 3 136 13 139 10 4 10 6 0 6 -7 1 -13 8
-13 16 0 13 -4 14 -20 5 -14 -8 -20 -8 -20 0 0 7 -6 7 -21 0 -16 -9 -30 -8
-60 4 -50 20 -49 20 -49 -5 0 -15 -4 -19 -16 -15 -9 3 -17 6 -18 6 -2 0 10 27
25 60 17 35 29 76 29 100 0 27 5 43 15 46 20 8 19 21 -2 27 -10 3 -34 12 -53
20 -32 13 -39 13 -87 -5z"/>
<path d="M477 1268 c6 -7 29 -39 52 -71 l43 -58 -52 -55 c-29 -30 -49 -58 -46
-61 3 -4 7 -4 9 -2 1 2 24 30 51 62 l48 57 -47 63 -46 62 78 6 78 5 -89 2
c-69 2 -86 -1 -79 -10z"/>
<path d="M1422 1273 l78 -4 -45 -61 c-25 -34 -45 -66 -45 -70 0 -11 93 -116
103 -117 5 -1 -14 26 -43 59 -33 38 -49 64 -44 72 4 7 25 36 46 65 21 29 38
55 38 58 0 3 -37 4 -82 3 l-83 -2 77 -3z"/>
<path d="M668 1263 c7 -3 16 -2 19 1 4 3 -2 6 -13 5 -11 0 -14 -3 -6 -6z"/>
<path d="M1308 1263 c7 -3 16 -2 19 1 4 3 -2 6 -13 5 -11 0 -14 -3 -6 -6z"/>
<path d="M708 1253 c7 -3 16 -2 19 1 4 3 -2 6 -13 5 -11 0 -14 -3 -6 -6z"/>
<path d="M523 1023 c15 -2 39 -2 55 0 15 2 2 4 -28 4 -30 0 -43 -2 -27 -4z"/>
<path d="M1413 1023 c15 -2 37 -2 50 0 12 2 0 4 -28 4 -27 0 -38 -2 -22 -4z"/>
<path d="M648 1013 c7 -3 16 -2 19 1 4 3 -2 6 -13 5 -11 0 -14 -3 -6 -6z"/>
<path d="M1328 1013 c7 -3 16 -2 19 1 4 3 -2 6 -13 5 -11 0 -14 -3 -6 -6z"/>
<path d="M1278 1003 c7 -3 16 -2 19 1 4 3 -2 6 -13 5 -11 0 -14 -3 -6 -6z"/>
<path d="M728 993 c7 -3 16 -2 19 1 4 3 -2 6 -13 5 -11 0 -14 -3 -6 -6z"/>
<path d="M502 763 c2 -10 10 -18 18 -18 8 0 16 8 18 18 2 12 -3 17 -18 17 -15
0 -20 -5 -18 -17z"/>
<path d="M1512 763 c5 -25 28 -28 28 -4 0 12 -6 21 -16 21 -9 0 -14 -7 -12
-17z"/>
<path d="M380 660 c0 -90 3 -110 15 -110 11 0 15 17 17 72 2 46 7 73 16 76 9
3 12 -16 12 -72 0 -62 3 -76 15 -76 13 0 15 14 13 83 l-3 82 -27 0 c-24 -1
-28 3 -28 27 0 18 -5 28 -15 28 -12 0 -15 -19 -15 -110z"/>
<path d="M200 655 l0 -105 40 0 c29 0 40 4 40 15 0 9 -9 15 -25 15 -22 0 -25
4 -25 35 0 28 4 35 20 35 11 0 20 5 20 10 0 6 -9 10 -20 10 -30 0 -29 57 2 62
41 6 32 28 -11 28 l-41 0 0 -105z"/>
<path d="M305 738 c-8 -25 -7 -142 1 -170 7 -22 54 -25 54 -3 0 8 -6 14 -12
13 -21 -5 -24 111 -4 118 20 8 21 24 1 24 -8 0 -15 9 -15 20 0 27 -16 25 -25
-2z"/>
<path d="M970 655 l0 -105 40 0 c29 0 40 4 40 15 0 9 -9 15 -25 15 -25 0 -25
1 -25 90 0 73 -3 90 -15 90 -12 0 -15 -18 -15 -105z"/>
<path d="M500 635 c0 -78 2 -85 20 -85 18 0 20 7 20 85 0 78 -2 85 -20 85 -18
0 -20 -7 -20 -85z"/>
<path d="M570 694 c-32 -84 23 -186 70 -129 17 21 24 95 11 128 -15 38 -67 39
-81 1z m50 -54 c0 -33 -4 -60 -10 -60 -6 0 -10 27 -10 60 0 33 4 60 10 60 6 0
10 -27 10 -60z"/>
<path d="M740 701 c-5 -11 -10 -41 -10 -66 0 -25 5 -55 10 -66 18 -33 80 -19
80 18 0 16 -27 17 -32 1 -6 -17 -28 0 -28 23 0 14 7 19 30 19 27 0 30 3 30 33
0 18 -5 38 -12 45 -18 18 -56 14 -68 -7z m50 -26 c0 -16 -6 -25 -15 -25 -16 0
-19 9 -9 34 9 25 24 19 24 -9z"/>
<path d="M1070 701 c-5 -11 -10 -41 -10 -66 0 -25 5 -55 10 -66 12 -21 50 -25
68 -7 17 17 15 38 -3 38 -8 0 -15 -4 -15 -10 0 -5 -7 -10 -15 -10 -9 0 -15 9
-15 25 0 21 5 25 30 25 27 0 30 3 30 33 0 18 -5 38 -12 45 -18 18 -56 14 -68
-7z m50 -32 c0 -10 -7 -19 -15 -19 -15 0 -21 31 -9 43 11 10 24 -3 24 -24z"/>
<path d="M1180 705 c-7 -8 -9 -23 -5 -32 6 -16 8 -15 25 7 18 23 19 24 26 6 5
-14 -1 -26 -25 -45 -26 -21 -32 -33 -29 -56 3 -28 6 -30 46 -32 l42 -2 0 73
c0 43 -5 77 -12 84 -17 17 -53 15 -68 -3z m50 -99 c0 -14 -5 -28 -10 -31 -13
-8 -24 20 -16 40 9 24 26 17 26 -9z"/>
<path d="M1290 633 c0 -67 3 -83 15 -83 12 0 15 14 15 69 0 39 5 73 10 76 6 3
10 -3 10 -14 0 -24 15 -28 24 -6 10 28 -4 44 -40 43 l-34 -1 0 -84z"/>
<path d="M1380 634 c0 -77 2 -84 20 -84 18 0 20 7 20 69 0 67 11 98 24 65 3
-9 6 -42 6 -75 0 -46 3 -59 15 -59 12 0 15 15 15 73 0 39 -4 77 -8 84 -4 6
-26 12 -50 11 l-42 0 0 -84z"/>
<path d="M1510 635 c0 -69 3 -85 15 -85 12 0 15 16 15 85 0 69 -3 85 -15 85
-12 0 -15 -16 -15 -85z"/>
<path d="M1570 634 c0 -67 3 -84 15 -84 11 0 15 17 17 72 2 46 7 73 16 76 9 3
12 -16 12 -73 0 -67 2 -76 18 -73 14 3 18 16 20 65 4 83 -7 102 -58 101 l-40
0 0 -84z"/>
<path d="M850 645 c0 -11 12 -15 45 -15 33 0 45 4 45 15 0 11 -12 15 -45 15
-33 0 -45 -4 -45 -15z"/>
</g>
</svg>
